<?xml version="1.0" encoding="UTF-8"?>
<svg id="Layer_1" xmlns="http://www.w3.org/2000/svg" version="1.1" viewBox="0 0 160 160">
  <!-- Generator: Adobe Illustrator 30.1.0, SVG Export Plug-In . SVG Version: 2.1.1 Build 136)  -->
  <defs>
    <style>
      .st0 {
        fill: #e29062;
      }

      .st1 {
        fill: #f5f6f7;
      }

      .st2 {
        fill: #683e31;
      }

      .st3 {
        fill: #a57861;
      }

      .st4 {
        fill: #f2f4f5;
      }

      .st5 {
        fill: #5e5f65;
      }

      .st6 {
        fill: #706e75;
      }

      .st7 {
        fill: #cfd1d9;
      }

      .st8 {
        fill: #9998a0;
      }

      .st9 {
        fill: #f4f5f7;
      }

      .st10 {
        fill: #b0abb2;
      }

      .st11 {
        fill: #fdfdfe;
      }

      .st12 {
        fill: #b6b7be;
      }

      .st13 {
        fill: #cdcad2;
      }

      .st14 {
        fill: #da9160;
      }

      .st15 {
        fill: #f8f8f7;
      }

      .st16 {
        fill: #ce875b;
      }

      .st17 {
        fill: #fdfdfb;
      }

      .st18 {
        fill: #6b7276;
      }

      .st19 {
        fill: #83878d;
      }

      .st20 {
        fill: #878796;
      }

      .st21 {
        fill: #e9e8ed;
      }

      .st22 {
        fill: #a5a0a5;
      }

      .st23 {
        fill: #85624c;
      }

      .st24 {
        fill: #5f6668;
      }

      .st25 {
        fill: #404757;
      }

      .st26 {
        fill: #532420;
      }

      .st27 {
        fill: #b65a40;
      }

      .st28 {
        fill: #b5b8bf;
      }

      .st29 {
        fill: #805643;
      }

      .st30 {
        fill: #f6c994;
      }

      .st31 {
        fill: #984636;
      }

      .st32 {
        fill: #f7f7f8;
      }

      .st33 {
        fill: #dbdbe1;
      }

      .st34 {
        fill: #b24434;
      }

      .st35 {
        fill: #e4975f;
      }

      .st36 {
        fill: #fafafc;
      }

      .st37 {
        fill: #f7f6f7;
      }

      .st38 {
        fill: #9d9aa0;
      }

      .st39 {
        fill: #86888b;
      }

      .st40 {
        fill: #d9d6da;
      }

      .st41 {
        fill: #64657b;
      }

      .st42 {
        fill: #312725;
      }

      .st43 {
        fill: #885b42;
      }

      .st44 {
        fill: #ea965f;
      }

      .st45 {
        fill: #e99867;
      }

      .st46 {
        fill: #43423d;
      }

      .st47 {
        fill: #2d2120;
      }

      .st48 {
        fill: #f7f5f4;
      }

      .st49 {
        fill: #ededf2;
      }

      .st50 {
        fill: #40444d;
      }

      .st51 {
        fill: #2a2e3e;
      }

      .st52 {
        fill: #e2945f;
      }

      .st53 {
        fill: #f6f6f7;
      }

      .st54 {
        fill: #1f1d23;
      }

      .st55 {
        fill: #495058;
      }

      .st56 {
        fill: #c56c4a;
      }

      .st57 {
        fill: #5e3428;
      }

      .st58 {
        font-family: MyriadPro-Regular, 'Myriad Pro';
        font-size: 12px;
      }

      .st59 {
        fill: #e29963;
      }

      .st60 {
        fill: #fcfcfd;
      }

      .st61 {
        fill: #231f21;
      }

      .st62 {
        fill: #f2f2f4;
      }

      .st63 {
        fill: #954436;
      }

      .st64 {
        fill: #dc9364;
      }

      .st65 {
        fill: #f3f4f7;
      }

      .st66 {
        fill: #93624b;
      }

      .st67 {
        fill: #dbdde3;
      }

      .st68 {
        fill: #211d21;
      }

      .st69 {
        fill: #4f5559;
      }

      .st70 {
        fill: #b4b1b4;
      }

      .st71 {
        fill: #d1d0d5;
      }

      .st72 {
        fill: #f7c69b;
      }

      .st73 {
        fill: #a4a5b3;
      }

      .st74 {
        fill: #b1b3bd;
      }

      .st75 {
        fill: #4b362d;
      }

      .st76 {
        fill: #abaab2;
      }

      .st77 {
        fill: #372322;
      }

      .st78 {
        fill: #1f1d21;
      }

      .st79 {
        fill: #66382c;
      }

      .st80 {
        fill: #ac704e;
      }

      .st81 {
        fill: #cac6d0;
      }

      .st82 {
        fill: #dd8c61;
      }

      .st83 {
        fill: #c18056;
      }

      .st84 {
        fill: #b4b2bb;
      }

      .st85 {
        fill: #c3c3c9;
      }

      .st86 {
        fill: #d3d2dd;
      }

      .st87 {
        fill: #a09da5;
      }

      .st88 {
        fill: #c1c1c7;
      }

      .st89 {
        fill: #f1f2f2;
      }

      .st90 {
        fill: #1d1a1f;
      }

      .st91 {
        fill: #a4a8b5;
      }

      .st92 {
        fill: #d28e61;
      }

      .st93 {
        fill: #e1e0e5;
      }

      .st94 {
        fill: #e6e5eb;
      }

      .st95 {
        fill: #f2f3f3;
      }

      .st96 {
        fill: #c9c9d1;
      }

      .st97 {
        fill: #dc9966;
      }

      .st98 {
        fill: #dce1e5;
      }

      .st99 {
        fill: #fbfbfc;
      }

      .st100 {
        fill: #1f1f28;
      }

      .st101 {
        fill: #585960;
      }

      .st102 {
        fill: #a06d52;
      }

      .st103 {
        fill: #7a7c86;
      }

      .st104 {
        fill: #43525b;
      }

      .st105 {
        fill: #b6b7bf;
      }

      .st106 {
        fill: #747275;
      }

      .st107 {
        fill: #fff;
      }

      .st108 {
        fill: #755041;
      }

      .st109 {
        fill: #f1f0eb;
      }

      .st110 {
        fill: #623b32;
      }

      .st111 {
        fill: #f1f0f3;
      }

      .st112 {
        fill: #322222;
      }

      .st113 {
        fill: #744130;
      }

      .st114 {
        fill: #3f4149;
      }

      .st115 {
        fill: #aeb4bc;
      }

      .st116 {
        fill: #6f6d76;
      }

      .st117 {
        fill: #c1c0c3;
      }

      .st118 {
        fill: #a87054;
      }

      .st119 {
        fill: #747d81;
      }

      .st120 {
        fill: #4b5057;
      }

      .st121 {
        fill: #c9c8cc;
      }

      .st122 {
        fill: #1c2126;
      }

      .st123 {
        fill: #989da6;
      }

      .st124 {
        fill: #5a352b;
      }

      .st125 {
        fill: #bab8c8;
      }

      .st126 {
        fill: #f0eff3;
      }

      .st127 {
        fill: #8f8f96;
      }

      .st128 {
        fill: #919499;
      }

      .st129 {
        fill: #5c493b;
      }

      .st130 {
        fill: #e79765;
      }

      .st131 {
        fill: #8c8a91;
      }

      .st132 {
        fill: #41464a;
      }

      .st133 {
        fill: #f4f4f6;
      }

      .st134 {
        fill: #df915f;
      }

      .st135 {
        fill: #f6f5f7;
      }

      .st136 {
        fill: #adadaf;
      }

      .st137 {
        fill: #c0c0c6;
      }

      .st138 {
        fill: #1c2029;
      }

      .st139 {
        fill: #81848a;
      }

      .st140 {
        fill: #231e20;
      }

      .st141 {
        fill: #d78e5e;
      }

      .st142 {
        fill: #85878f;
      }

      .st143 {
        fill: #c98753;
      }

      .st144 {
        fill: #2d2c37;
      }

      .st145 {
        fill: #f5f5f7;
      }

      .st146 {
        fill: #f8f8fa;
      }

      .st147 {
        fill: #edeff1;
      }

      .st148 {
        fill: #ebeef5;
      }

      .st149 {
        fill: #ab4132;
      }

      .st150 {
        fill: #291e20;
      }

      .st151 {
        fill: #7d462f;
      }

      .st152 {
        fill: #f8f9fa;
      }

      .st153 {
        fill: #e1e0e3;
      }

      .st154 {
        fill: #774b3c;
      }

      .st155 {
        fill: #fefefe;
      }

      .st156 {
        fill: #64392b;
      }

      .st157 {
        fill: #dc935d;
      }

      .st158 {
        fill: #acaeb7;
      }

      .st159 {
        fill: #221e21;
      }

      .st160 {
        fill: #6d4e3a;
      }

      .st161 {
        fill: #d5d7dc;
      }

      .st162 {
        fill: #2f2f36;
      }

      .st163 {
        fill: #97969d;
      }

      .st164 {
        fill: #aba9b3;
      }

      .st165 {
        fill: #4d2b26;
      }

      .st166 {
        fill: #191b22;
      }

      .st167 {
        fill: #c3c2c8;
      }

      .st168 {
        fill: #e8e2e4;
      }

      .st169 {
        fill: #f5f5f5;
      }

      .st170 {
        fill: #a6a1a8;
      }

      .st171 {
        fill: #f4f1f5;
      }

      .st172 {
        fill: #4b4952;
      }

      .st173 {
        fill: #9b4a38;
      }

      .st174 {
        fill: #6c6a71;
      }

      .st175 {
        fill: #cdd1d9;
      }

      .st176 {
        fill: #ada59a;
      }

      .st177 {
        fill: #583429;
      }

      .st178 {
        fill: #926355;
      }

      .st179 {
        fill: #f0f0f4;
      }

      .st180 {
        fill: #7c7a82;
      }

      .st181 {
        fill: #2f3840;
      }

      .st182 {
        fill: #9e9ca3;
      }

      .st183 {
        fill: #906041;
      }

      .st184 {
        fill: #ccccd1;
      }

      .st185 {
        fill: #dc8e5e;
      }

      .st186 {
        fill: #c3c0c3;
      }

      .st187 {
        fill: #595d61;
      }

      .st188 {
        fill: #4f5358;
      }

      .st189 {
        fill: #e4e1e3;
      }

      .st190 {
        fill: #8a8a92;
      }

      .st191 {
        fill: #9d9c9e;
      }

      .st192 {
        fill: #edeced;
      }

      .st193 {
        fill: #2c2d34;
      }

      .st194 {
        fill: #eda069;
      }

      .st195 {
        fill: #d2d5d5;
      }

      .st196 {
        fill: #ececf0;
      }

      .st197 {
        fill: #323b44;
      }

      .st198 {
        fill: #d7d8db;
      }

      .st199 {
        fill: #c68354;
      }

      .st200 {
        fill: #dd8e5e;
      }

      .st201 {
        fill: #d3885e;
      }

      .st202 {
        fill: #4e2d26;
      }

      .st203 {
        fill: #94949c;
      }

      .st204 {
        fill: #2c2021;
      }

      .st205 {
        fill: #4a322c;
      }

      .st206 {
        fill: #fafcfd;
      }

      .st207 {
        fill-opacity: 0;
      }

      .st208 {
        fill: #1e232b;
      }

      .st209 {
        fill: #7b7d89;
      }

      .st210 {
        fill: #a0a1ab;
      }

      .st211 {
        fill: #878a90;
      }

      .st212 {
        fill: #c6c7ce;
      }

      .st213 {
        fill: #d4d5d5;
      }

      .st214 {
        fill: #271e21;
      }

      .st215 {
        fill: #6e4b3c;
      }

      .st216 {
        fill: #95694f;
      }

      .st217 {
        fill: #87919a;
      }

      .st218 {
        fill: #7e8186;
      }

      .st219 {
        fill: #fdfdfd;
      }
    </style>
  </defs>
  <g id="Generative_Object">
    <path class="st208" d="M56.47,50.9c.37-.86.47-1.82-.13-2.65-.24-.34-.36-.72-.76-1-.2-.14-.64-.33-.68-.59.15-.23.29.14.41.21.86.46,1.58,1.75,1.67,2.62.02.22-.1,1.23-.51,1.41Z"/>
    <path class="st24" d="M20.89,94.23v.67h-.13v-.2s-.07-.09-.13-.07c-.03-.08,0-.18,0-.27.07.02.13-.03.13-.07,0-.08,0-.14,0-.2v-.27c.21.01.13.26.13.41Z"/>
    <path class="st119" d="M20.89,94.9c.08,0,.16-.02.2,0,.06.04.1.13.06.2-.04.06-.1.1-.2.07-.09-.03-.08-.15-.07-.27Z"/>
    <path class="st104" d="M22.36,94.77c-.09-.02-.15.05-.13.13-.11.05-.17-.12-.14-.19.03-.06.08-.13.21-.2.06-.03.08.2.06.25Z"/>
    <path class="st5" d="M21.43,94.37c.05,0,.11,0,.16-.01.1-.07.13.05.11.2-.01.12-.12.06-.2-.06-.02-.04-.09-.06-.07-.13Z"/>
    <g>
      <g>
        <path class="st107" d="M158.9,72.9c-.23-.05-.28.07-.28.21,0,.18-.05.29,0,.46.05.22.15.3.31.27s.1-.15.11-.27c.17.02.16.29.14.4-.04.18.09.3.26.46-.15.16-.35.35-.26.61-.09-.15-.39-.29-.53-.27-.05-.12-.21-.23-.24-.37-.15-.65-.2-1.21-.39-1.75.2-.04.67.27.77.08.03-.06,0-.15,0-.23.18-.06.12.16.03.25-.04.05.16.07.1.15Z"/>
        <path class="st18" d="M159.17,75.03c.55.89.92,1.82.81,2.93-.05.59.01,1.21-.4,1.61-.12.02-.11-.08-.15-.14.54-.84.57-1.96.15-2.98-.24.65-.47,1.18-.6,1.79-.12-.14-.05-.31-.2-.25.05-.24.29-.42.26-.68.16.02.13-.14.13-.27v-.13c.11.02.12-.04.11-.13-.05-1.01.43-.65-.18-1.23-.02-.35-.35-.48-.47-.77.14-.02.44.11.53.27Z"/>
        <path class="st219" d="M159.42,79.43l-.93-1.45c.1,0,.19.06.28,0,.15-.06.08.12.2.25.13-.6.36-1.14.6-1.79.42,1.02.38,2.15-.15,2.98Z"/>
        <g>
          <path class="st107" d="M101.66,48.62c.12-1.75-.78,2.38-.32,2.29-.07.19-.26.06-.28-.05-.08-.85-.02-1.65.05-2.46-.35.97-.17,1.79-.2,2.62,0,.09.02.28-.08.28h-.2c0-.1,0-.2.02-.29.33-.05.01-.39,0-.56-.19-2.98,1.96-5.74,4.98-6.18-.12.16-.17.38-.29.45-.35-.29-.47.21-.71.3-.37,0-.29.13.13.23-1.4.78-2.21,2.08-3.1,3.37Z"/>
          <path class="st120" d="M103.88,45.61c-.16.11-.21.18-.25.22-.03.03-.18.03-.19-.07,0-.06.19-.15.22-.25.14-.17.38-.1.22.09Z"/>
          <path class="st114" d="M102.08,47.67c-.1.09-.15-.11-.12-.17.02-.04.09-.09.2-.2.12.08.1.2-.09.37Z"/>
          <path class="st172" d="M102.61,46.87c-.09.08-.15-.11-.12-.17.02-.04.1-.09.2-.2.12.08.1.2-.09.37Z"/>
        </g>
        <path class="st61" d="M151.73,97.71c.03.11-.13.38-.26.37-.16-.22.16-.34.26-.37Z"/>
        <g>
          <path class="st107" d="M147.97,53.59c.05.1-.06.11-.03.16,0,0,3.79.63,4.17,3.69.1.78.25,1.68-.48,2.3.35-1.35.24-2.44-.55-3.46-.97-1.25-2.39-1.94-3.96-2.22.02-.27-.13-.29-.07-.33.08-.05.17-.09.23-.07.09.03.02.21.05.27.2.08.47.05.25-.19.18-.14.28-.35.37-.47-.02.08,0,.22.02.3Z"/>
          <path class="st188" d="M149.97,54.9c-.29.04-.4-.27-.69-.35.38-.18.58.12.69.35Z"/>
          <path class="st69" d="M151.16,55.98c-.23-.16-.38-.3-.53-.53.32-.03.56.21.53.53Z"/>
          <path class="st55" d="M149.97,54.9c.11-.09.43.12.36.22-.12.17-.37-.1-.36-.22Z"/>
          <path class="st187" d="M151.33,56.17c.06-.14.14.05.18.06.08.03.09.25,0,.25-.06,0-.25-.14-.18-.31Z"/>
        </g>
        <g>
          <path class="st61" d="M147.95,53.28c-.09.11-.19.32-.37.47.22.24-.04.27-.25.19-.04-.06.04-.24-.05-.27-.05-.02-.15.02-.23.07-.05.03.09.06.07.33,1.58.27,3,.96,3.96,2.22.79,1.02.9,2.11.55,3.46.73-.62.57-1.52.48-2.3-.38-3.06-4.17-3.68-4.17-3.69-.03-.04.08-.06.03-.16,1.44.21,2.8.92,3.68,2.16.81,1.15,1.01,2.58.44,3.93,1.88.8,3.75,2.35,3.83,4.36.05,1.3-.6,2.5-1.16,3.82.19.24.35.74.68.91,2,.93,3.46,2.68,3.9,4.79.04.17,0,.43-.16.41.02-.11.03-.38-.14-.4.03-.24.02-.47-.13-.67.06-.08-.14-.11-.1-.15.09-.09.15-.31-.03-.25.07-.18-.11-.25-.13-.4-.01-.1-.03-.13-.13-.13.04-.19-.08-.37-.27-.4.08-.21-.09-.22-.14-.31-.42-.79-1.68-2.14-2.8-2.12.91.79,1.77,1.58,2.28,2.56,0,.04,0,.09,0,.13-.01.09.04.15.13.13.08.21.05.58.3.68.19.53.24,1.1.39,1.75.03.14.19.25.24.37-.05,0-.29,0-.25.05.09.12-.05,1.2-.17,1.4-.09.14-.11.36-.12.52-.12-.05-.11.09-.13.16l-.12.39c-.07-.02-.13.02-.14.07-.03.11.02.28.13.21.12.22.41.41.66.41l.93,1.45c.04.06.04.17.15.14.87,4.19-.38,3.38-1.5,6.76-.03.08-.24.03-.23.14,0,.06.03.15-.1.32-.11-.09-.04-.23-.05-.33.02-.08.14-.1.1-.19.07-.04.21-.06.12-.18-.03-.03-.03-.07,0-.1.14,0,.11-.13.18-.23.1-.15-.06-.22-.18-.19-.07.02-.11.08-.22.11-.38.14-.21.48-.15.76.24,1.04,0,2.14-.47,3.13-.14.29-.08.74-.34,1.03-.43.46-.82,1.07-1.3,1.42-.76.56-2.05,1.19-2.7.87-.14-.06-.16.03-.08.12.58,1.27.9,2.65.4,4.03-.43,1.17-1.54,2.12-2.71,1.99,1.48-.09,2.49-1.32,2.74-2.8.18-1.07-.11-2.18-.73-3.09.42,1.6.34,3.34-.65,4.55.87-1.62.8-3.56.19-5.38.06,2.31.83,2.05-.22,4.14-.46.92-.78,1.87-1.48,2.58-1.35,1.36-2.36,3.11-4.47,2.73-1.78-.32-2.36-1.37-2.73-1.3-.11.02-.11.05-.12.15-.1.81-.3,1.66-.86,2.4-1.15,1.5-3.14,2.09-4.9,1.62-.67-.18-1.4-.43-1.97-.81-.85-.42,2.64,1,1.51.39,1.65.88,3.96.22,5.17-1.29.69-.86.82-2.04.73-3.11-.16.63-.16,1.3-.48,1.86-.18-.07-.18.24-.27.27-.12.05-.2.15-.29.25-.77.9-1.5,1.2-1.32,1.44-1.05.43-2.33.73-3.54.45-1.05-.24-1.96-1.03-2.76-1.79.06.49.59.76.84,1.21-.55-.12-.8-.78-1.17-1.2-.12-.14-.38.05-.56,0-1.35-.31-2.44-1.2-2.94-2.38.89.88,1.48,2.16,3.27,1.97-1.27-.4-2.35-1.12-3.15-2.22-.04-.05-.08,0-.12.25-.24-.55-1.35-1.81-1.45-3.06-2.05.52-3.32-1.94-3.27-3.79-1.6-.81-2.5-2.43-1.93-4.26.33-1.06,1.07-1.97,2.06-2.61-.12-.74-.12-1.48.06-2.18.14-.52.48-.97.61-1.64-2.18.99-.78.88-3.3,1.03-.41.02-.97-.37-1.02-.86,1.57,1.72,4.08-.1,5.47-1.44,1.5-1.45,2.66-3.16,3.15-5.19.38-1.56.35-3.16-.46-4.53-1.17-1.95-3.5-2.46-5.36-1.2-.87.59-1.46,1.32-2.14,2.1-.82.94-2.1,1.49-3.31,1.1-.27-.09-.44-.23-.7-.1-.15-.16-.25-.79-.57-.36-.11-.29-.45-.4-.57-.67l-.57-1.31c-.05-.46.14-.94-.12-1.52-.3.71-.47,1.51-.21,2.27.34-.09.1-.28.17-.49-.11-.21-.06-.33.16-.25.22,2.17.36,2.46,2.1,4.18.16-.23-.15-.34.05-.45.53,1.18,1.21,1.4,2.11,2.41-.7-.32-1.22-.87-1.96-.96.03.28.26.15.38.27l1.02.97c-.47-.24-.75-.59-1.25-.62-.14,1.54-1.1,2.89-2.51,3.39.5-.69.91-1.31,1.4-1.83.13.25-.19.38-.2.73.68-.32,1.46-2.49.93-2.57-.2-.03-.24,1.35-.73,1.83-.11-.24.8-1.69.17-2.17l-.35,1.36c-.15.6-.51,1.12-.87,1.61l1.03-2.45c.38-.92-1.06-1.3-1.02-1.84.05-.06.07-.06.12.01.4.5.81.89,1.32,1.17-1.84-1.84-1.95-2.07-2.63-4.62.13-2.24-.37-4.34-2.04-5.9-.26-.24-5.03-2.27-6.26-4.53-.56-1.03-1.26-2.15-.94-3.2.03.11-.04.22.05.41.16-.08.09-.23-.05-.41.12-.39,0-.86-.19-1.2-.43,1.2-.45,2.37-.07,3.47-.99-.56.11-3.78-.18-4.67-.15.14-.18.27-.35.27h-1.33c-.92-.56-1.57-1.39-1.94-2.55-.14,1.21.74,2.56,1.94,2.55-.01.06.02.14.07.13.1-.02.21-.02.22.22-1.88-.3-2.55-1.68-2.6-3.81-.22-.56-.96-.79-1.28-1.22.02-.82-.15-1.64.2-2.62-.07.81-.12,1.61-.05,2.46.02.11.22.24.28.05-.46.09.44-4.04.32-2.29-.13-.08-.1.04-.1.09,0,.13-.05.29.1.33.04-.19.12-.33,0-.41.89-1.29,1.7-2.6,3.1-3.37-.42-.09-.5-.22-.13-.23.24-.09.37-.59.71-.3.11-.07.17-.3.29-.45-3.02.44-5.17,3.2-4.98,6.18.01.17.33.51,0,.56-.5-1.67.06-3.39,1.14-4.78s2.59-1.93,4.19-2.44c1.33-.42,2.24-1.69,5.43-.83,1.02-.44,1.92-1.09,2.95-1.41,2.28-.7,3.28.28,4.01.18.51-.07,1.13-.1,1.58-.32l2.51-1.24c1.29-.64,2.55-.22,3.82-.17.97.03,1.94-.13,2.85,0,1.85.28,3.5,1.16,4.54,2.8.12.19.27.12.44.12,2.8-.01,4.42,3.04,5.24,3.46.47.24,3.29-.17,6.53,1.75,1.85,1.1,2.68,3.17,2.09,5.14Z"/>
          <g>
            <g>
              <path class="st134" d="M129.35,94.83c-.74.37-.46,1.45-.84,1.82-.99.98-3.29-1.7-2.94-3.51,1.81,1.19,1.45,1.14,3.78,1.69Z"/>
              <path class="st130" d="M113.04,64.38c.06.29.4.45.64.76-2.04-.79-4-1.86-5.57-3.53-.13-.14-.41-.44-.04-.57-.85-.6-1.16-1.66-1.26-2.67.03.5,1.49,2.72,1.53,2.76,1.84,1.67,2.94,1.95,4.7,3.25Z"/>
              <path class="st194" d="M104.09,54.14c.5.7,2.15.38,2.07.86-.05.34-.2.34-.44.44-1.81.78-3.35-2.3-3.19-3.77.4,1.07.49,2.16,1.42,2.84.1.04.25.03.14-.06-.07-.11-.17-.19-.15-.23s.14,0,.15-.08Z"/>
              <path class="st82" d="M114.92,65.69c.09-.1-.03-.19-.06-.25-.02-.04-.11-.03-.21.03-.02.01.26.33.27.21-.23.3.3.33.38.49.34.68.31,1.46.49,2.17l-1.2-2.24c-.12-.22-.42-.4-.26-.76-.22-.06-.3.1-.38.02-.15-.16-.1-.18.02-.26s.21.08.4,0c-.19-.14-.4-.25-.41-.48.59.15,1.06.56,1.27,1.3-.15-.05-.18-.21-.32-.23Z"/>
              <path class="st52" d="M124.6,90.75c-.49-1.21-.33-3.17.98-4.09-.92,1.14-1,2.48-.98,4.09Z"/>
              <path class="st97" d="M130.09,99.98c.03-.26.08-.3.12-.25.8,1.11,1.88,1.82,3.15,2.22-1.79.19-2.38-1.09-3.27-1.97Z"/>
              <path class="st59" d="M136.68,104.12s.05.07,0,.11c1.13.61-2.36-.81-1.51-.39-.04-.21-.26-.26-.42-.29-.25-.45-.78-.72-.84-1.21.8.75,1.71,1.55,2.76,1.79Z"/>
              <path class="st45" d="M118.1,78.37c.49-.48.53-1.86.73-1.83.53.07-.25,2.25-.93,2.57,0-.35.33-.48.2-.73Z"/>
              <path class="st200" d="M104.5,55.7c-1.2,0-2.08-1.34-1.94-2.55.36,1.16,1.01,1.99,1.94,2.55Z"/>
              <path class="st199" d="M125.79,86.12c-.43-.53-.11-2.01.12-2.56.17.24-.02.42-.03.59l-.09,1.97Z"/>
              <path class="st154" d="M116.16,69.3c-.22.26.08.47.04.81-.33-.2-.37-.83-.09-1.09.18-.13-.16-.27.03-.54.23.27.25.58.22,1,0,.31-.13.23-.21-.18Z"/>
              <path class="st0" d="M113.97,64.63c-.14-.02-.21-.02-.33.13-.17-.15-.34-.41-.59-.39-.03-.13-.11-.14-.13-.27.44.06.76.35,1.06.53Z"/>
              <g>
                <path class="st44" d="M125.36,92.65c-1.19-.31-1.76-1.34-1.88-2.47-.09-.82.24-1.65.77-2.38-.39,1.81-.14,3.28,1.11,4.85Z"/>
                <path class="st46" d="M124.26,91.64c.06-.14.14.05.18.06.07.03.1.25,0,.25-.06,0-.25-.14-.18-.31Z"/>
              </g>
              <path class="st61" d="M114.92,65.69c-.01.11-.3-.2-.27-.21.1-.07.19-.08.21-.03.03.06.15.14.06.25Z"/>
            </g>
            <g>
              <path class="st107" d="M151.73,97.71c-.1.03-.42.15-.26.37.13.02.29-.25.26-.37.98-1.2,1.07-2.94.65-4.55.62.92.91,2.03.73,3.09-.25,1.48-1.26,2.71-2.74,2.8-.05,0-.1.04-.14-.01.7-.71,1.01-1.66,1.48-2.58,1.05-2.09.28-1.83.22-4.14.6,1.82.68,3.75-.19,5.38Z"/>
              <path class="st107" d="M157.93,86.01s-.02.07,0,.1c-.13-.03-.11.1-.12.18.04.09-.08.11-.1.19-.05-.07-.1-.08-.15,0-.06-.28-.24-.63.15-.76.02.11-.07.19.05.29.06.05.08.14.16.01Z"/>
              <path class="st219" d="M127.39,40.99c-1.96-.1-3.66-.18-5.58.21.44-.47,1.02-.35,1.6-.45.18-.16.57.13.35-.19-1.14.12-2.06.31-2.91.84-.15.09-.41.05-.49-.02,2.02-.81,1.39-.91,3.41-1.35,1.38-.3,1.94.47,3.31.13,1.61-.41,5.45.61,6.35,2.78-.64-.04-1.09-.38-1.51-.66-1.37-.91-2.83-1.2-4.54-1.29Z"/>
              <path class="st60" d="M141.43,47.56c.47,0,.94.03,1.5-.03,2.15-.23,5.33,2.03,5,4.9.02-.19-.26,1.52-.6.96l-.09-1.17c-.19.36-.05.73-.08,1.16-.52.22-.04-1.41-.7-2.33-.18-.25-.05-.48-.13-.65-.44-.91-1.22-1.6-2.1-2.06-.94-.5-1.93-.44-2.81-.78Z"/>
              <g>
                <path class="st107" d="M132.49,66.52c-1.16-1.31-2.86-1.5-4.61-1.85-.05-.06-.24-.18-.17-.32l9.7-9.09,2.24,1.65-5.99,10.5c-.4-.31-.88-.55-1.18-.89Z"/>
                <path class="st176" d="M132.49,66.52c-.27-.18-1.55,1.89-1.87,1.83l-2.74-3.67c1.75.34,3.45.54,4.61,1.85Z"/>
              </g>
              <path class="st95" d="M138.24,45.59c-.11.04-.3-.06-.35.05-.03.06-.04.22-.04.28-.54-.2-1.79-2.23-2.52-2.15.66.52,1.32,1,1.68,1.85-1.02-.99-2.13-1.68-3.35-2.38.44-.36.85-.2,1.23-.07,1.39.44,2.48,1.34,3.36,2.43Z"/>
              <path class="st145" d="M136.69,104.23s.03-.07,0-.11c1.21.28,2.49-.03,3.54-.45.69-.28,1.36-.73,1.63-1.42.07-.15.34-.32.26-.55.32-.57.33-1.23.48-1.86.1,1.06-.04,2.24-.73,3.11-1.21,1.52-3.52,2.18-5.17,1.29Z"/>
              <path class="st152" d="M143.32,99.12c.25-.82,1.28.01,2.12.11-.38.03-.76-.13-1.22,0,2.1.75,4.36.14,6.01-1.37-1.57,2.14-4.64,2.68-6.91,1.27Z"/>
              <path class="st146" d="M106.37,44.5s0-.04,0-.14c.38-.14.77-.17,1.07-.49-.34-.04-.54.2-1.02.01,1.19-.82,2.68-1.23,4.3-.89-.88.67-1.95.71-2.91.94-.51.13-.96.49-1.44.56Z"/>
              <path class="st135" d="M158.53,79.16l-1.14-1.53c2.01.88,2.98,4.08,1.82,5.81.01-.98.14-3.89-.68-4.29Z"/>
              <path class="st71" d="M152.17,91.36c.63-.26,1.15-.34,1.72-.67,1.45-.87,3.53-1.45,2.6-4.67l-.28-.97c.41,0,.21.36.3.51.39.65.42,1.26.42,2.04,0,2.23-2.64,3.92-4.75,3.77Z"/>
              <path class="st137" d="M156.37,70.76c-.12.22.15.25.25.43.66,1.11,1.14,2.49.88,3.77-.19.91-.33,1.85-1.03,2.49.88-1.78,1.19-3.67.4-5.45-.14-.31-1.07-1.56-1.17-1.64l-1.28-1.13c.23.02.36.27.58.24.11-.31.27-.09.11.14.38.44.8.84,1.26,1.15Z"/>
              <path class="st37" d="M157.43,77.4l-.19.29c-.09.14-.36-.04-.29-.21.07-.06.21-.02.25-.07.05-.07-.06-.3-.02-.38.71-1.33.62-2.66.54-4.18.68,1.46.65,3.08-.29,4.55Z"/>
              <path class="st107" d="M158.1,71.26c-.12-.02-.27.03-.4.08-.15.05-.12.23-.12.36-.51-.98-1.37-1.76-2.28-2.56,1.12-.03,2.38,1.33,2.8,2.12Z"/>
              <path class="st40" d="M158.9,82.63c-.25.61-.61,1.11-1.07,1.6-.09,0-.14.01-.2,0s-.07.12-.08.22c-.02.24.41-.28.28-.22h.27c-.09.18-.33.16-.27.42-.28-.12,0,.18-.18.3-.21.14-.47.15-.7.24.03-.23.12-.14.18-.17.07-.04.16-.2-.19-.31.3-.12.39-.15.6-.29-.42-.23-.55.08-.79,0,1.2-.47,1.86-1.35,2.16-2.51.3.31-.03.48-.01.72Z"/>
              <path class="st206" d="M115.31,41.61c0,.09-.01.19-.01.28-.64.15-1.24.07-1.75.44.72,0,1.32-.31,2.03-.17-.64,0-1.91.52-2.24.43-.37-.09-.57.28-1,.12.96-.56,1.91-1.04,2.98-1.1Z"/>
              <path class="st108" d="M117.59,71.56c-.28-.28-.53-.67-.35-1.09.24,1.16,2.17,2.04,3.32,1.99.6-.03.99-.39,1.56-.47-2.22,1.78-4.51-.59-4.24-.52-.15-.04-.21-.05-.29.09Z"/>
              <path class="st83" d="M103.43,53.03c-.29-.17-.26-.91-.2-1.29.03-.19-.24-.47.06-.61.23,1.59,1.3,2.63,2.83,3.04-1.22.1-2.21-.9-2.76-1.98-.22.34.1.57.07.83Z"/>
              <path class="st35" d="M129.26,95.26c-.34,1.52.26,1.57.25,3.37-.74-1.03-.95-2.35-.25-3.37Z"/>
              <path class="st64" d="M113.17,63.23c-.38.2-4.02-1.24-4.13-1.97,1.83,1.31,2.12,1.03,4.13,1.97Z"/>
              <path class="st53" d="M142.93,47.35c-.14.32-3.45-.31-3.52-.57,1.22.12,2.31.27,3.52.57Z"/>
              <path class="st141" d="M121.85,72.59c-.77.65-1.7.98-2.57.63.95-.23,1.83-.2,2.53-.75.04-.03.13-.15.2-.13.04.01.08.09.05.13-.03.04-.09.04-.21.11Z"/>
              <path class="st200" d="M116.76,71.02c-.22-.08-.27.05-.16.25-.07.21.17.4-.17.49-.26-.76-.09-1.55.21-2.27.26.58.08,1.06.12,1.52Z"/>
              <path class="st60" d="M156.64,90.37c.05.6-.94,1.24-1.04,1.33,0-.13,0-.29-.09-.33-.12-.05-.26-.04-.35-.06.55-.24.96-.75,1.46-1.08.04.03.01.1.02.14Z"/>
              <path class="st211" d="M140.5,102.75c-.04-.26.17-.33.34-.44.76-.48.84-1.35,1.36-2.11-.12,1.08-.81,1.99-1.69,2.55Z"/>
              <path class="st206" d="M115.96,41.84v-.22c.64-.09,1.28-.02,1.88.31-.69-.06-1.32-.14-1.88-.09Z"/>
              <path class="st219" d="M158.64,74.77c.12.29.45.41.47.77-1.05.2-.23.83-.89.69.13-.21.26-1.28.17-1.4-.04-.05.19-.04.25-.05Z"/>
              <path class="st50" d="M141.85,102.24c-.27.69-.94,1.14-1.63,1.42-.17-.24.55-.54,1.32-1.44l.31.02Z"/>
              <path class="st158" d="M154.62,68.09l.61.72c-.45.28-.6.1-.81-.08-.28-.23-.26-.49-.11-.79.13.22.01.35.08.56.18,0,.15-.12.23-.42Z"/>
              <path class="st66" d="M117.59,71.56c1.42,1.25.35.65,2.12,1.31-.95.15-1.88-.49-2.12-1.31Z"/>
              <path class="st48" d="M158.11,84.91c-.04-.06.05-.17.02-.23-.06-.12-.18.07-.3-.02-.06-.26.18-.24.27-.42.13-.28.42-.5.67-.67-.08.5-.24,1.07-.66,1.34Z"/>
              <path class="st64" d="M108.93,61.13c-.72-.42-1.3-1.12-1.48-2,.43.72.9,1.26,1.48,2Z"/>
              <path class="st157" d="M129.36,96.75c-.16-.67,0-1.4.45-2.03-.06.71-.2,1.25-.45,2.03Z"/>
              <path class="st102" d="M127.17,92.6c-.85-.15-1.52-.84-1.83-1.6.63.63,1.09,1.14,1.83,1.6Z"/>
              <path class="st183" d="M126.27,84.89c-.2-.98.22-1.22.26-2.01.28-.05-.03,1.62-.26,2.01Z"/>
              <path class="st80" d="M125.24,90.9c-.35-.65-.43-1.41-.28-2.14l.15,1.02c.04.28.12.64.14,1.12Z"/>
              <path class="st215" d="M113.17,62.63c-.16-.12-.61.03-.74-.28-.09.34-.18.33-.23.01-.24.01-.7,0-.76-.26.02,0,1.77.21,1.73.53Z"/>
              <path class="st48" d="M157.91,85.19c-.15.37-.85.34-.95.01.23-.09.49-.1.7-.24-.08.09.18.3.25.23Z"/>
              <path class="st95" d="M137.85,45.92c.14,0,.17.18.28.07.08-.08.17-.15.13-.26.29.15.43.4.66.65-.45.04-.93-.13-1.07-.46Z"/>
              <path class="st43" d="M104.09,54.14c0-.21.02-.38.16-.24.43.34.98.19,1.35.55-.6.05-1.02-.27-1.51-.31Z"/>
              <path class="st29" d="M130.34,98.77c-.47-.31-.58-.84-.45-1.34l.45,1.34Z"/>
              <path class="st211" d="M140.5,102.75c-.38.24-.68.86-1.38.76.47-.3.91-.56,1.38-.76Z"/>
              <path class="st11" d="M148.28,100.89l-.05-.37c.18-.1.4-.4.77-.31-.24.29-.46.47-.72.68Z"/>
              <path class="st11" d="M143.85,100.37s-.16.04-.22.03c-.05-.01-.09.07-.09.13-.17-.16-.71-.14-.55-.64.37.19.68.26.87.47Z"/>
              <path class="st216" d="M131.3,99.83c-.4-.07-.83-.49-.95-.97l.95.97Z"/>
              <path class="st215" d="M111.03,61.96c-.23.17-1.18-.59-1.14-.52-.42-.61,1.38.67,1.14.52Z"/>
              <path class="st174" d="M151.39,58.12c-.2-.41-.41-.79-.46-1.22.36.33.5.77.46,1.22Z"/>
              <path class="st70" d="M157.44,78.37c-.33-.12-.59-.27-.83-.5.44-.16.66.25.83.5Z"/>
              <path class="st8" d="M106.37,44.5c-.19.33-.55.45-.95.52.24-.31.62-.47.95-.52Z"/>
              <path class="st180" d="M158.53,79.16c.01.26.09.3.11.34.04.07,0,.21-.1.2-.14-.29-.39-.47-.45-.79.25,0,.24.29.44.25Z"/>
              <path class="st203" d="M158.77,83.57c.04-.29.16-.57.13-.93.3.21.14.75-.13.93Z"/>
              <path class="st14" d="M129,93.81c-.23-.06-.34-.18-.49-.35.26-.09.46.09.49.35Z"/>
              <path class="st106" d="M146.43,51.96c-.06-.3-.31-.54-.14-.95.06.28.31.48.14.95Z"/>
              <path class="st38" d="M156.37,70.76c-.03-.17.01-.34.14-.2.16.23.47.3.37.62-.23-.12-.3-.37-.51-.42Z"/>
              <path class="st215" d="M113.17,62.63c.2.07.55.08.68.37-.36.1-.5-.24-.68-.37Z"/>
              <path class="st28" d="M106.37,44.35c-.17.07-.31-.05-.47.12-.04.04-.09-.09-.08-.14.02-.1.19-.08.23-.13.1-.11.24-.17.31-.04.02.04,0,.13,0,.19Z"/>
              <path class="st107" d="M158,72.65c-.25-.1-.22-.47-.3-.68.07,0,.14-.02.26.02.03.25-.04.47.03.66Z"/>
              <path class="st50" d="M141.85,102.24c-.03-.09-.01-.18-.01-.28.09-.04.09-.34.27-.27.09.23-.19.4-.26.55Z"/>
              <path class="st116" d="M150.8,56.58c-.22.04-.46-.21-.42-.49.17.11.33.19.42.49Z"/>
              <path class="st191" d="M144.86,49.16c-.23.02-.36-.18-.5-.38.26-.06.4.09.5.38Z"/>
              <path class="st23" d="M131.3,99.83c.21.04.52.12.49.43-.31-.1-.43-.28-.49-.43Z"/>
              <path class="st92" d="M126.25,92.57c-.13.06-.34-.04-.48-.23.15-.16.32-.04.48.23Z"/>
              <path class="st118" d="M133.29,101.52c-.26.13-.43.03-.53-.21.23-.04.32.08.53.21Z"/>
              <path class="st107" d="M158.5,71.97c-.17-.01-.33-.23-.27-.4.18.03.31.21.27.4Z"/>
              <path class="st128" d="M155.7,88.63c-.08-.12.12-.42.22-.36.16.11-.09.37-.22.36Z"/>
              <path class="st218" d="M155.7,88.63c.08.11-.12.43-.22.36-.17-.12.1-.37.22-.36Z"/>
              <path class="st39" d="M145.86,50.44c.06-.14.15.05.18.06.07.03.11.24,0,.25-.06,0-.25-.14-.18-.31Z"/>
              <path class="st43" d="M103.43,53.03c.1.06.39.19.22.36-.1.05-.29-.24-.22-.36Z"/>
              <path class="st163" d="M157.44,78.37c.11-.09.43.12.36.22-.12.17-.37-.1-.36-.22Z"/>
              <path class="st143" d="M106.21,54.58c.14-.16.25-.09.29-.01s0,.16-.07.2c-.08.04-.2.03-.22-.19Z"/>
              <path class="st60" d="M141.43,47.56c-.11-.01-.22.03-.41-.03.02-.16.23-.1.32-.1.05,0,.1.05.09.13Z"/>
              <path class="st215" d="M111.43,62.1c-.19.05-.41.03-.4-.13.19.12.34-.11.4.13Z"/>
              <path class="st117" d="M141.85,102.24l-.31-.02c.09-.11.17-.21.29-.25,0,.09-.01.18.01.28Z"/>
              <path class="st10" d="M101.66,48.62c.12.09.04.22,0,.41-.16-.03-.1-.19-.1-.33,0-.05-.03-.17.1-.09Z"/>
              <circle class="st139" cx="155.19" cy="89.32" r=".13"/>
              <path class="st219" d="M159.04,77.3v-.2s.07-.09.13-.07c0,.12.03.28-.13.27Z"/>
              <path class="st219" d="M159.17,76.9c0-.08.02-.15.11-.13,0,.09,0,.15-.11.13Z"/>
              <path class="st219" d="M157.96,76.9c.02-.07.01-.21.13-.16,0,.09,0,.22-.13.16Z"/>
              <path class="st219" d="M157.84,77.57c-.12.07-.17-.1-.13-.21.01-.05.07-.09.14-.07-.02.08-.04.2,0,.28Z"/>
              <path class="st60" d="M156.77,90.1s0,.08.04.11c-.06.02-.13.03-.19.01-.07-.05-.02-.14.01-.19.03-.04.06-.09.14-.07v.13Z"/>
              <path class="st60" d="M152.24,92.23c-.17.01-.16-.19,0-.14v.14Z"/>
              <g>
                <path class="st111" d="M154.87,65.86c.29-3.05.34-1.09-.33-3.06-.31-.91-1.21-1.34-1.66-2.06-.2-.32-1.01-.18-.97-.9,1.15.37,2.04,1.09,2.81,1.89,1.69,1.75.89,3.84-.03,5.73-.19-.59.12-1.04.17-1.6Z"/>
                <path class="st51" d="M153.95,61.57c-.18-.08-.27-.23-.4-.37.23-.09.42,0,.4.37Z"/>
              </g>
              <g>
                <path class="st16" d="M128.13,93.37c.28.55.75.65,1.1,1.05-1.8-.09-1.91-.48-3.23-1.28.6-.18.97.37,1.3.18.22-.08.71-.1.84.05Z"/>
                <path class="st75" d="M128.15,93.65c-.23.02-.35-.12-.6-.13.15-.13.48-.24.6.13Z"/>
              </g>
              <path class="st193" d="M158.77,83.57c-.25.17-.54.39-.67.67h-.27c.46-.49.82-.99,1.07-1.6.03.36-.09.65-.13.93Z"/>
              <path class="st193" d="M157.84,84.23c.13-.06-.3.45-.28.22.01-.11.02-.24.08-.22s.11,0,.2,0Z"/>
            </g>
          </g>
        </g>
      </g>
      <g>
        <path class="st107" d="M13.12,43.7c-.33.63-.63,1.14-1.6,1.2-.07.02-.18.16-.26.1-.15-.12-.05-.22-.06-.35.42-.68,1.11-1.08,1.92-.95Z"/>
        <path class="st107" d="M21.99,93.69c-.21-.05-.32.08-.41.22-.11.17.02.28,0,.44-.05.01-.11.01-.16.01-.05-.24-.35-.13-.53-.13,0-.15.08-.39-.14-.41,0-.08-.02-.15-.01-.23.29-.17.59-.39.95-.51.13.24.23.42.3.6Z"/>
        <g>
          <path class="st122" d="M.3,67.94c-.21.6.69,1.43.91,1.43.12,0,.2-.2.31-.29.12-.06.21,0,.31.12.08.1.18.17,0,.24-.09.08-.24-.34-.28-.04,0,.07.11.24.1.3-.08.38-.19.64-.22.94-.03.33.05.38.28.54.21.14.33.49.76.37l-.19-.38c.14-.08.2.03.27.09.12.11.02.33.23.26.24-.09.38.96,0,1.1-.51.18-.36,1.76-.28,2.57.16.03.15-.13.14-.19-.01-.05.11-.12.15-.07.02.09-.19.25-.04.33.18.09.45,1.05.54.64.46.91.75.51.81,1.14-.7-.2-1.18-.82-1.73-1.28,0-.06-.01-.15-.08-.16-.07-.01-.14,0-.21,0-.18-.97-.76-1.17-.49-2.67-2.12-.77-2.26-3.32-1.52-4.27-.32.88-.44,1.96.14,2.68-.02.04,0,.07.03.11.24.55,1.17,1.5,1.6,1.15.06-.05.2-.13,0-.19-.67-.37-.94-1.22-1.08-1.99-.02-.13.19-.18.18-.13.02-.11-.03.97.49,1.35.27.2.57.76,1.01.6.03-.06-.03-.32-.07-.41-.37,0-.72-.3-1.1-.6s.15-1-.08-1.36-.8-.83-.95-1.22c-.07-.19-.08-.62-.18-.8.11-.08.16.1.24.11Z"/>
          <g>
            <path class="st192" d="M1.83,69.44c-.28.91.09,1.02.44,1.72l.19.38c-.42.12-.55-.23-.76-.37.02-.23-.02-.49-.28-.54.03-.3.14-.57.22-.94.01-.06-.11-.23-.1-.3.04-.29.19.13.28.04Z"/>
            <path class="st32" d="M1.52,69.08c-.11.09-.19.29-.31.29-.21,0-1.12-.83-.91-1.43.62.08.65.93,1.22,1.14Z"/>
            <path class="st7" d="M2.77,72.6c-.18.76-.18,1.55.01,2.3-.04-.04-.16.02-.15.07.01.07.03.22-.14.19-.09-.8-.23-2.39.28-2.57Z"/>
            <path class="st121" d="M3.28,75.87c-.09.41-.37-.55-.54-.64-.15-.08.06-.23.04-.33.25.26.34.65.5.97Z"/>
            <path class="st126" d="M.24,71.41l.31-.02c.09,0,.1-.18.07-.3-.03-.13-.19-.04-.3,0-.07.03-.1.08-.11.2-.59-.72-.46-1.8-.14-2.68.06,0,.12,0,.18,0,.15.4.72.85.95,1.22s-.3,1.06.08,1.36.73.6,1.1.6c.03.08.1.35.07.41-.44.16-.74-.4-1.01-.6-.52-.38-.47-1.46-.49-1.35,0-.05-.2,0-.18.13.14.77.4,1.62,1.08,1.99.19.06.05.14,0,.19-.43.35-1.36-.6-1.6-1.15Z"/>
            <path class="st195" d="M1.91,74.35c-.33-.4-.25-.82-.17-1.19.28.4.26.77.17,1.19Z"/>
            <path class="st20" d="M1.7,71.17c-.23-.15-.31-.21-.28-.54.26.04.3.31.28.54Z"/>
            <path class="st182" d="M2.17,75.17c-.11-.2-.31-.39-.17-.69.08.17.29.28.17.69Z"/>
          </g>
        </g>
        <g>
          <path class="st107" d="M13.69,89.43c-.18-.21-.46-.34-.81-.4.16.31.48.39.81.4-.02.24-.29.22-.56.12-1.41-.52-2.6-1.95-2.72-3.24.21-.16.04-.36-.14-.63-.22.32-.35.14-.56.12.07-.16.1-.32-.02-.46.42.08.81.39,1.29.21-.03-.14,0-.38-.16-.39-.36.09-.4-.12-.1-.15.15.06.37.01.33.09-.07.14.06.18.09.29.14.41.15.92.21,1.39.05.38.31.43.45.65.48.8,1.09,1.47,2.03,1.8.18.14.1.28-.14.22Z"/>
          <path class="st166" d="M12.6,88.77c-.43-.11-.78-.53-.72-.95.25.36.49.56.72.95Z"/>
          <path class="st132" d="M13.69,89.43c-.33,0-.66-.09-.81-.4.35.06.63.19.81.4Z"/>
        </g>
        <path class="st140" d="M1.96,61.3c0,.22-.16.37-.18.68-.15-.09-.09-.29-.08-.46,0-.1.14-.19.26-.22Z"/>
        <path class="st162" d="M27.56,40.63c-.19-.11-.18.11-.27.13-.17.05-.53,0-.67-.13-.07-.08-.08-.21-.27-.13-.02-.17.24-.18.33-.12.1.07.25.14.41.22.06.03.12-.17.27-.11.08.03.22-.02.2.14Z"/>
        <g>
          <path class="st140" d="M40.87,41.14c.09.05.15-.03.22-.1.03-.03.12-.13.05-.14h-.25c-.32.04-.37-.19-.05-.2.81.39.97-1.37,3.25-1.29,2.15.07,1.48.53,2.53.55v.14s-.28,0-.25.07c.03.07.18.26.39.2.08.26.3.38.53.4.02.24.14.45.4.53.02.21-.21.07-.41.19.16.16.37.05.54.08v.2s.07.07.18.08c.04,0,.11-.05.03-.13-.05-.05-.1-.15-.21-.14,0-.07.02-.14,0-.2-.02-.05-.07-.09-.13-.07.04-.2-.18-.51-.4-.53-.02-.22-.34-.44-.53-.4l-.13-.27c.22-.09.31.23.52.17.27.31.7.48.81.9.02.08.04.2.16.14,0,.04.02.08.04.11.07.12.06.27.17.36.12.1.19.04.3-.05-.02.13.06.12.14.08.61-.05,1.25.15,1.63.62s.65.99.49,1.68c1.89.09,2.61.32,3.31,2.03.18.2.66.2.71.53-.09.16-.13-.05-.26,0,1.66,1.59.97,1.08,1.53,2.02.4.67.17,1.54.02,2.31-.22.06-.26.03-.3.05-.04.02-.13.1-.07.15-2.37-.74-1.54-.29-3.54.97-.65.41-1.08.97-1.95,1.01-.12,0-.26.33-.26.4.29.35.47.84.39,1.34-.3,1.74-1.69,1.13-1.77,1.41-.23.83-1.82,2.3-3.06,2.27-.11.13.19.38.24.4l.15,1.8c-.23-.92-.32-1.95-1.34-2.38.96,1.29,1.18,1.09.99,3.2.99-.69.94-.93.69-2.16.42.17.44.82.37,1.21-.13.68-1.24.96-1.45,1.63-.42,1.34-1.69,2.19-3.06,2.45-1.07.2.25.47-.04,2.24-.02.14.06,1.3-.77,1.74-.5.27-.62-.47-2.11.67.22.32.5.6.51,1.01,0,.08-.3.13-.25.17.51.49.04,1.65.04,1.65-.04.94-.08,1.65-.66,2.38-.3.38-.62.96-1.27.96-.72,0-.92-.87-1.18-1.33-.86-.23-1.67-.68-1.9-1.68-.51.63-1.11-.84-2.5-1.89-1.09-.83-2.43-1.24-3.74-.8-1.46.5-2.39,1.87-2.6,3.36-.55,3.88,2.12,7.37,5.02,9.29-.18-.1-.45-.02-.71-.24-.31-.28-.62-.57-1.04-.69-.17.97-.55,1.71-.99,2.53.17.25.34.46.45.66.58.99.79,2.15-.02,3.06-.08.09.03.52-.32.44-.09-.02-.06-.25-.18-.24-.35.19-.3.18.09.33-1.08,3.15-1.73,3.4-4.61,4.59-.26.1-.06.5-.32.53-.1-.04-.09-.07,0-.12.38-.23-.76-.45-.53-.42-.13-.02-.47.1-.47.32,0,.3.46.64.75.73-.01.22-.07.44-.01.65.03.11-.11.19-.12.28-.4.34-.96.57-1.49.32.41-.1.68.01.95-.18.1-.08.22-.14.27-.27.03-.09.25-.1.24-.21-.02-.37-.48-.71-.74-.87-.08-.18-.17-.36-.3-.6-.36.13-.65.35-.95.51-.4.23-.99.12-1.42-.11-.57-.3-.83-1.14-.88-1.68.19-.74.1.17.45.82.09.18.09.49.4.53-.03.11.07.11.13.13.17.1.33.17.53.13.02.05.05.2.2.14.05-.02.07-.08.07-.14.09,0,.19-.03.29-.04.41-.07.8-.25,1.21-.45-.49-.04-.85-.04-1.23-.13-.31-.07-.51-.33-.79-.46-.12-.12-.1-.41-.33-.38-.08-.34-.28-.66-.4-1.02-.34.22-.57.48-.86.64-1.54.8-3.32-.21-4.03-1.84-1.74.44-3.99-2.23-3.89-3.75-.37-.07-.65.05-.91-.1.14-.13.34-.07.43-.11.21.02.34.2.56-.12.18.28.35.47.14.63.12,1.29,1.31,2.73,2.72,3.24.27.1.54.12.56-.12.24.05.32-.08.14-.22-.95-.33-1.55-1-2.03-1.8-.13-.22-.39-.26-.45-.65-.06-.47-.08-.97-.21-1.39-.03-.11-.16-.15-.09-.29.04-.08-.18-.03-.33-.09-.3.03-.26.24.1.15.17.02.13.25.16.39-.47.17-.87-.14-1.29-.21-.59-.11-.98-.66-1.03-1.45-2.27.01-4.34-1.52-4.81-3.78-.15-.73.16-1.47.52-1.99.16.05.17-.17,0-.17-.74-.33-1.56-.51-2-1.31-.17-.31-.35-.61-.27-.93.09,0,.19-.02.28.03.06.08-.03.08-.15.16.12,1.03,2.16,2.36,2.81,1.39l-.93-.26c-.06-.63-.34-.23-.81-1.14-.16-.32-.25-.7-.5-.97-.2-.76-.2-1.54-.01-2.3.38-.13.24-1.18,0-1.1-.21.08-.11-.15-.23-.26-.07-.06-.12-.17-.27-.09-.35-.7-.72-.81-.44-1.72.19-.07.09-.14,0-.24-.1-.12-.19-.18-.31-.12-.57-.21-.6-1.06-1.22-1.14-.08,0-.13-.18-.24-.11-.18-.3.04-1.05.05-1.44.01-1.36-.03-2.74,1.19-3.61.13-.1.38-.11.38-.27v-.4c.05-.03.14-.01.14.05s-.07.18.15.2c-.25-.81.75-1.45.74-1.77-.52.1-.41.6-.76.69,0-.07.04-.14-.05-.28-.15.15-.27.28-.43.36.09-.3.34-.51.58-.78-1.22-1.4-1.71-2.71-.85-4.31.39-.73,1.24-1.12,2.09-1.51.16.04.16-.15,0-.15-.24-.64-.43-1.27-.06-2.01.64-1.29,1.96-1.15,2.05-1.72.15-.88.67-1.46,1.57-1.67-.74-1.77.29-3.36,1.94-3.9.7-.23,1.35-.18,2.13-.27.12-.01.04-.36.1-.38.04-.01.1-.1.17-.03,0,.14-.09.23.06.35.08.06.19-.07.26-.1.97-.07,1.28-.57,1.6-1.2.72-1.39,2.55-1.59,3.89-1.05-.01.17.1.09.15.04.09-.09.1-.12.11-.2.07-1.3,1.12-2.23,2.28-2.87,1.77-.97,1.73-.47,3.47-.61.41.32.99.25,1.47.38.61.16,1.08.61,1.59.95-.02.09.04.17.13.15.03.2.22.29.4.27,0,.15.18.1.27.2.14.16.26,0,.4-.07.13-.07.36-.11.4-.27.07.02.12-.03.14-.07.04-.12-.04-.23-.15-.2-.76-.84-1.84-1.33-2.96-1.42-.43-.04-.89.07-1.3-.07-.03-.04-.04-.09.02-.1,1.71-.27,3.23.26,4.53,1.51.38-.86,1.18-.92,1.81-1.3.89-.54,1.67-1.3,2.73-1.31-.35.41-1.64.45-2.42,1.31.76.13,1.38-.08,1.85-.6.26.07.54-.06.7.07-.27.13-.63-.03-.69.41l2.02-.7c.31-.11.59.03.94-.11-2.27-.69-.63.36-1.62-.01-.3-.11-.6.04-.98.17-.14-.01.03-.12.07-.17.06-.09.15-.05.23-.07,0-.22.45-.16.16-.28.74-.55,1.84.29,2.48.17,1.04-.19,1.45.3,2.22.48,1.41.32,2.81.89,3.01,2.63-.22.07-.05.24.1.24.1,0,.2-.12.31-.05Z"/>
          <g>
            <g>
              <path class="st177" d="M36.25,73.81c-.55-.06-1.06-.34-1.19-.81.49.18.68.68,1.13.39-.2-.33-.59-.27-.94-.46-.19-.18-.04-.44.11-.13.28.04.63.41.8.03.03.21.2.57.62.64-.17.04-.36.35-.53.33Z"/>
              <g>
                <path class="st2" d="M41.11,68.57c-.16.04-.33-.06-.35-.17-.03-.12.21-.16.3-.25l.8-.77c.18.52-.22,1.05-.75,1.19Z"/>
                <path class="st79" d="M51.7,52.23c-.35.69-1.26.64-1.88.63.92-.6.34.21,1.88-.63Z"/>
                <path class="st79" d="M51.7,52.23c.06-.15.25-.37.36-.22.04.14-.23.28-.36.22Z"/>
              </g>
            </g>
            <g>
              <path class="st107" d="M32.76,37.67c.29.12-.17.06-.16.28-.08.02-.17-.02-.23.07-.04.06-.21.16-.07.17.38-.13.69-.28.98-.17,1,.37-.65-.68,1.62.01-.34.14-.62,0-.94.11l-2.02.7c.06-.43.42-.27.69-.41-.16-.13-.44,0-.7-.07-.46.52-1.09.73-1.85.6.78-.86,2.07-.9,2.42-1.31.08,0,.18-.04.25,0Z"/>
              <path class="st107" d="M19.38,91.98c-.13.02-.27-.05-.43.02l-.05.64c-.35-.65-.26-1.56-.45-.82-.12-.04-.27-.1-.34-.21.3-.15.53-.42.86-.64.13.36.32.68.4,1.02Z"/>
              <path class="st107" d="M23.42,38.87c.42.13.87.03,1.3.07,0,.2-.28.25-.22.46-.49-.13-1.06-.06-1.47-.38.17,0,.2-.22.39-.15Z"/>
              <path class="st107" d="M1.68,62.11c-.33-.1-.29-.46-.21-.73.17-.08.29-.21.43-.36.09.14.05.21.05.28-.12.03-.26.12-.26.22,0,.17-.07.37.08.46.02-.31.19-.46.18-.68.35-.09.24-.6.76-.69,0,.32-.99.95-.74,1.77-.22-.03-.15-.14-.15-.2s-.09-.09-.14-.05Z"/>
              <path class="st107" d="M48.62,41.72c-.11.09-.18.15-.3.05-.11-.09-.1-.24-.17-.36.12-.04.25-.04.37.04.06.04.04.18.1.26Z"/>
              <path class="st107" d="M47.15,40.27c-.21.06-.29-.26-.52-.17v-.14h.47c.11.01.07.22.05.31Z"/>
              <path class="st107" d="M27.69,40.63c.02-.07.02-.21-.01-.27.11-.04.19.08.15.2-.01.05-.06.09-.14.07Z"/>
              <path class="st107" d="M48.76,41.8c-.08.04-.16.05-.14-.08.07-.05.16-.02.14.08Z"/>
              <path class="st107" d="M26.23,40.5c-.1.02-.16-.06-.13-.15.06.04.17.04.13.15Z"/>
              <path class="st107" d="M20.76,94.9c-.06,0-.24.03-.26-.06-.01-.06.15-.11.12-.2.07-.02.13.03.13.07v.2Z"/>
              <path class="st107" d="M22.92,94.9h-.16c.01-.09.15-.17.12-.28.07-.05.11,0,.14.08.04.09,0,.21-.11.2Z"/>
              <path class="st107" d="M20.63,94.37c0-.05,0-.12,0-.2,0-.04.07-.09.13-.07,0,.06,0,.12,0,.2,0,.04-.07.09-.13.07Z"/>
              <path class="st107" d="M19.43,93.3c-.06-.03-.17-.02-.13-.13.09-.02.15.05.13.13Z"/>
              <path class="st107" d="M157.7,71.97c-.09.02-.15-.04-.13-.13.09-.02.15.05.13.13Z"/>
              <path class="st107" d="M158.64,72.1c-.09.02-.15-.05-.13-.13.11,0,.12.04.13.13Z"/>
              <path class="st107" d="M40.87,41.14c-.06-.07.03-.14.02-.24h.25c.07,0-.02.11-.05.14-.07.07-.13.16-.22.1Z"/>
              <path class="st107" d="M22.23,95.03v-.13c.09.02.15-.05.13-.13h.13c-.04.12-.16.19-.27.27Z"/>
              <path class="st107" d="M48.11,41.3c-.11.07-.14-.06-.16-.14.09-.02.16.05.16.14Z"/>
              <path class="st107" d="M142.92,100.63c.01-.1.01-.13.12-.15.02.08-.03.16-.12.15Z"/>
              <path class="st107" d="M61.85,89.7c-.09-.02-.21-.01-.31,0,.03-.15.17-.24.31-.24.05.07.07.18,0,.23Z"/>
              <path class="st107" d="M94.9,89.7l-.29-.02c-.05-.07-.05-.15,0-.22.05,0,.1-.04.16-.03l.13.27Z"/>
              <path class="st107" d="M20.23,93.43c0,.05-.02.11-.07.14-.15.07-.18-.08-.2-.14h.27Z"/>
              <path class="st107" d="M2.37,75.73c-.09-.04-.18-.03-.28-.03.01-.04,0-.09-.01-.13.07,0,.14-.02.21,0,.07.01.08.1.08.16Z"/>
              <path class="st107" d="M19.7,92.36c-.2-.1-.27-.16-.33-.38.23-.03.21.26.33.38Z"/>
              <path class="st107" d="M3.3,54.78s-.01-.1,0-.15c.17,0,.17.19,0,.15Z"/>
              <path class="st107" d="M4.37,78.11c-.01-.06-.01-.11,0-.17.18,0,.16.22,0,.17Z"/>
              <path class="st107" d="M17.01,42.65l.26-.16c0,.09-.01.11-.11.2-.05.05-.17.13-.15-.04Z"/>
              <path class="st107" d="M152.68,93.04c-.08-.09-.06-.18.08-.12.08.07.02.17-.08.12Z"/>
              <path class="st36" d="M10.89,45.3c-.79.7-1.22-.04-2.33.67-.68.43-1.48.9-1.34,1.77.4-1.24,1.45-1.92,2.6-1.97.1,0,.22-.07.32-.07.04,0,.16.07,0,.13-.05.02-.08.04-.04.12-1.48.38-2.29,1.73-2.56,3.22-.02.11-.4-.1-.26-.19.05-.03.06-.22-.05-.34-.21.14.11.44-.27.59-.07-.54-.14-1.09-.05-1.66.19-1.13,1.2-1.86,2.3-2.08.56-.11,1.13-.02,1.67-.18Z"/>
              <path class="st196" d="M16.61,89.86c.36,0,.58-.16.85-.28-.03.29-.03.63-.37.63-.03.18,0,.38-.14.56-.13-.2.03-.33-.11-.44-.11-.09-.33-.32-.27.08-.56-.11-1.04-.16-1.52-.31.01-.13-.27-.38-.38-.29-.08.26.23.24.38.29.43.43,1.13.26,1.61.61s.89.57,1.46.63c-1.49.89-3.33-.22-3.75-1.73.6.09,2.16.9,2.25.24Z"/>
              <path class="st179" d="M17.69,43.18c.09-.09.15.14.21.1.09-.06.05-.22,0-.25-.07-.05-.12-.2-.2.16-.26-.06-.29-.35-.27-.59,0-.12-.03-.46.37-.24.08-1.09.76-1.89,1.75-2.43.87-.48,1.69-.96,2.72-.63-.95.59-2.22.71-2.94,1.01.44.02.48.2.09.21-1.57,1.1-1.21,1.75-1.36,3.04-.17-.18-.31-.1-.36-.19-.03-.07-.06-.13,0-.18Z"/>
              <path class="st49" d="M4.57,54.95c-.92.51-2.43.29-2.93,1.94-.3.99-.21,1.92.15,2.91-1.04-1.14-1.08-2.97.16-3.97.74-.59,1.7-.84,2.62-.87Z"/>
              <path class="st184" d="M2.61,56.51c.09-.16.57-.25.23-.44-.11-.26.4-.41.72-.4.45,0,.76-.42,1.25-.3-.76.41-1.51.68-2.01,1.41-.78,1.12-.69,2.28.02,3.48-.62,0-1.13-2.94-.68-3.37-.13-.3.08-.3.16.01.19,0,.24-.23.3-.38Z"/>
              <path class="st62" d="M54.9,46.66c.04.27.48.46.68.59.4.27.52.66.76,1,.6.82.51,1.79.13,2.65l-.65.29c-.06-.05.03-.13.07-.15.04-.01.08.01.3-.05.15-.76.37-1.64-.02-2.31-.56-.94.14-.42-1.53-2.02.13-.05.17.16.26,0Z"/>
              <path class="st9" d="M4.09,77.01l.93.26c-.65.97-2.69-.36-2.81-1.39.12-.07.22-.08.15-.16.55.46,1.03,1.08,1.73,1.28Z"/>
              <path class="st99" d="M17.21,43.37c-1.53-.52-2.99-.48-3.97.7.33-1.11,1.54-1.65,2.72-1.43.49.1,1.1.1,1.25.73Z"/>
              <path class="st105" d="M39.98,40.89c.07-.36-.23-.72-.5-1.07-.07.43.33.69.5,1.07-.71-.18-.84-1.52-2.06-1.63-.1-.34-.38-.31-.65-.46,1.37-.27,2.74.75,2.88,2.17-.07,0-.11-.09-.18-.07Z"/>
              <path class="st89" d="M10.1,45.94c.33.24.64-.5,1.34-.17-2.15.69-2.78,1.33-3.58,3.55-.15-1.61,1.06-2.53,2.23-3.38Z"/>
              <path class="st147" d="M42.6,40.36c-.39.26-.73.61-1.21.69,1.13-1.56,3.15-1.92,4.74-.96-1.26-.33-2.45-.46-3.53.26Z"/>
              <path class="st171" d="M5.07,51.67c-.87.75-.92,1.74-.51,2.82-.69-.31-.66-1.1-.59-1.64.07-.61.41-1.08,1.1-1.38.1-.07.13.12,0,.2Z"/>
              <path class="st1" d="M18.76,90.12c0,.17.15.07.28.16-.39.54-1.11.83-1.8.66-.11-.05.06-.35.11-.44.04-.07.16-.15.3-.06-.37-.22-.04-.34.06-.42.33-.26.59.28,1.05.09Z"/>
              <path class="st94" d="M4.14,54.59c-.15.13-.4.15-.54.12-.5-.79-.49-1.91.31-2.54-.29.8-.29,1.56.23,2.42Z"/>
              <path class="st65" d="M1.99,62.65c-1.55,1.72-.78,1.01-1.59,2.92-.14-1.16.36-2.47,1.59-2.92Z"/>
              <path class="st93" d="M50.09,44.33c-.11-.28.32-.48.3-.75-.06-.94-.83-1.23-1.68-1.54.97-.13,1.88.63,1.93,1.63.01.22-.22.57-.55.66Z"/>
              <path class="st169" d="M7.02,49.62c.17.12-2.06,1.7-1.41,1.51-.44.13.32-2.02,1.41-1.51Z"/>
              <path class="st212" d="M46.86,41.11c-1.2-.97-2.51-1.03-4-.63.5-.7,3.81-.51,4,.63Z"/>
              <path class="st124" d="M49.46,54.32c.18.07-.05.39-.18.49-.19.15-.45.25-.71-.01-.05-.23-.16-.39-.38-.55.45-.19.83-.1,1.26.08Z"/>
              <path class="st12" d="M9.83,84.1c0,.12-.25.22,0,.27,0,.12.08.15.2.14.1,0,.22,0,.2-.14.12,0,.23-.03.27.07-.22.15-.08.23.13.19-.39.35-1.02.04-1.42-.4-.1.06-.04.21-.08.41-.21-.25-.32-.55-.18-.78.32.28.64.08.89.23Z"/>
              <path class="st4" d="M35.65,38.09c.46-.34,1.66.21,1.45.58-.24.4-.73-.33-1.45-.58Z"/>
              <path class="st98" d="M14.49,44.23c0-.09,0-.18,0-.27h.54c.67-.02,1.39-.35,1.91.29-.93-.22-1.66-.17-2.45-.02Z"/>
              <path class="st170" d="M22.61,92.92v.38c.01.06,0,.14.01.2.02.07.1.09.2.07.06,0,.05-.09.07-.14.08-.02.2-.02.25-.1-.09.06-.1.08,0,.12.06.18,0,.37,0,.65-.18-.03-.15-.19-.25-.15-.29-.09-.75-.42-.75-.73,0-.23.34-.34.47-.32Z"/>
              <path class="st136" d="M24.49,40.04c-.76-.38-1.43-.35-2.37-.37.52-.33,1.19-.37,1.79,0,.18.11.58-.12.59.37Z"/>
              <path class="st198" d="M52.45,45.54c-.3-.58-.84-.92-1.56-1.13.65-.11,1.53.22,1.56,1.13Z"/>
              <path class="st33" d="M1.85,63.55c-.45.28-.56.69-.92,1.09.02-.55.49-1.04,1.04-1.38.27.14-.03.13-.11.29Z"/>
              <path class="st36" d="M10.89,45.3c.25,0,1.82-.55,1.39-.14-.49.46-.29.27-1.39.14Z"/>
              <path class="st107" d="M20.51,93.39c-.02-.19-.03-.38-.03-.57.38.09.74.09,1.23.13-.41.19-.79.38-1.21.45Z"/>
              <path class="st210" d="M53.32,45.83c-.23.17-.4.22-.59.02.11-.32-.03-.53-.08-.84.37.21.4.59.67.82Z"/>
              <path class="st21" d="M53.8,46.14c-.34-.44-.57-.89-.76-1.36.5.32.8.78.76,1.36Z"/>
              <path class="st213" d="M29.56,39.59c-.5.41-.92.68-1.48.92.38-.5.88-.8,1.48-.92Z"/>
              <path class="st19" d="M36.37,38.92c-.43-.19-.77-.35-1.1-.66.47.06.88.24,1.1.66Z"/>
              <path class="st81" d="M49.86,44.08c-.05-.45-.08-.8.02-1.2l.26.69c-.24.13-.11.33-.29.51Z"/>
              <path class="st74" d="M1.96,59.3c.3.25.12.73.54,1-.18.2-.23-.02-.4-.12-.08-.04-.15-.7-.13-.89Z"/>
              <path class="st13" d="M17.73,43.77l.24.13c.05.03,0,.16-.07.2-.22.12-.72-.72-.55-.7.25.06.23.29.38.37Z"/>
              <path class="st167" d="M23.15,93.34c-.06.08-.17.08-.25.1.02-.07-.03-.13-.07-.13h-.2s-.01-.38-.01-.38c-.23-.03.92.19.53.42Z"/>
              <path class="st153" d="M22.27,92.61c-.03-.15.21-.19.38-.24.14-.04.16.16.02.25-.07.05-.13.14-.4,0Z"/>
              <path class="st67" d="M10.22,85.12c-.27.09-.64.14-.81-.19.29-.12.41.09.81.19Z"/>
              <path class="st73" d="M56.01,50.49c-.15-.27-.02-.55.17-.81.15.34-.09.42-.17.81Z"/>
              <path class="st127" d="M49.38,43.3c-.2-.1-.21-.3-.35-.52.27-.06.5.11.35.52Z"/>
              <path class="st76" d="M38.64,39.95c-.32.04-.57-.22-.53-.53.23.16.37.3.53.53Z"/>
              <path class="st115" d="M18.76,90.12c-.08-.21-.18-.28-.42-.33.16-.23.34-.03.55.04.19.06.1.12,0,.21-.04.03-.06.08-.13.09Z"/>
              <path class="st87" d="M7.62,49.45c.21.16,0,.3-.13.26-.11-.04-.36.08-.33-.16.02-.17.12-.1.15-.04.07.15.17-.17.31-.06Z"/>
              <path class="st142" d="M16.61,89.86c-.31-.13-.15-.18-.11-.24.04-.07.14-.07.31-.05.19-.25.31-.03.15.13-.25-.05-.37,0-.35.15Z"/>
              <path class="st168" d="M23.18,92.75c-.17.21-.27,0-.28-.07,0-.13.08-.34.19-.31.14.03.26.17.09.38Z"/>
              <path class="st186" d="M12.76,44.9c.07.21-.06.39-.2.67-.12-.09-.07-.28-.06-.45,0-.1.14-.18.26-.22Z"/>
              <path class="st6" d="M13.96,44.23c0,.13.21.18.08.29-.08.07-.15.13-.2.05-.04-.07-.34-.06-.22-.2.06-.06.19-.07.21-.12.04-.03.09,0,.13-.02Z"/>
              <path class="st91" d="M47.7,41.3c-.26-.08-.38-.3-.4-.53.22.02.44.34.4.53Z"/>
              <path class="st86" d="M47.3,40.76c-.24-.02-.45-.14-.53-.4.2-.04.51.18.53.4Z"/>
              <path class="st175" d="M14.36,44.1c-.17-.06-.25.09-.4.13-.04.01-.1-.01-.13.02.02-.23.34-.32.53-.42,0,.09,0,.18,0,.27Z"/>
              <path class="st125" d="M1.96,59.3c-.24-.09-.17-.48-.06-.68.13.28.03.48.06.68Z"/>
              <path class="st161" d="M10.23,84.37h-.4c-.25-.05,0-.15,0-.27.12.07.33.09.4.27Z"/>
              <path class="st107" d="M26.63,40.63v.13c-.18.03-.37-.07-.4-.27.04,0,.09.02.13,0,.19-.08.19.06.27.13Z"/>
              <path class="st22" d="M54.51,47.01c-.28.08-.47-.11-.39-.39.17.12.27.22.39.39Z"/>
              <path class="st103" d="M47.83,41.56c-.18-.03-.38.08-.54-.08.2-.12.43.02.41-.19.06-.02.12.02.13.07.02.06,0,.12,0,.2Z"/>
              <path class="st164" d="M16.09,89.78c-.15.08-.42.16-.59-.1.16-.19.25.05.59.1Z"/>
              <path class="st156" d="M49.11,53.86c-.33,0-.45-.14-.15-.17.13-.13.14-.13.21-.06.11.1.2.2-.06.24Z"/>
              <path class="st84" d="M10.63,84.63c-.01-.14-.03-.21.06-.27.06-.03.14-.02.2.06.04.06,0,.16-.06.2-.05.03-.12,0-.21,0Z"/>
              <path class="st88" d="M46.63,40.1l.13.27c-.2.06-.35-.13-.39-.2-.03-.06.23-.09.25-.07Z"/>
              <path class="st107" d="M27.56,40.63s.09,0,.13,0c-.04.16-.27.2-.4.27v-.13c.08-.03.08-.24.27-.13Z"/>
              <path class="st190" d="M12.76,44.9c-.04-.13.1-.42.21-.35.17.11-.09.36-.21.35Z"/>
              <path class="st217" d="M15.29,43.64c-.14.11-.3.08-.54.03.07-.16.23-.14.54-.03Z"/>
              <path class="st148" d="M20.55,91.08c.01-.27.33.17.33.16-.02.11-.17.1-.19.07-.03-.04-.15-.07-.14-.22Z"/>
              <path class="st209" d="M17.7,41.79c.02.34-.14.39-.16.07.01-.15.09-.21.16-.07Z"/>
              <path class="st123" d="M47.83,41.56c.11,0,.17.1.21.14.08.08,0,.13-.03.13-.11,0-.18-.03-.18-.08v-.2Z"/>
              <path class="st41" d="M14.49,43.96c0,.09,0,.18,0,.27-.09.02-.14-.04-.13-.13s0-.18,0-.27c.09-.02.14.04.13.13Z"/>
              <path class="st205" d="M45.6,57.55c.14.07.08.15-.07.16-.31-.02-.27-.18.07-.16Z"/>
              <path class="st131" d="M2.61,56.51c-.12.02-.23,0-.24-.08,0-.04.11-.1.13-.14.03-.07.12-.06.13.01.01.09,0,.16-.02.21Z"/>
              <path class="st85" d="M9.09,83.62c0-.13.17-.05.21.01.02.04.02.14-.06.2-.04.03-.14-.08-.15-.21Z"/>
              <circle class="st113" cx="51.85" cy="51.45" r=".13"/>
              <path class="st189" d="M.23,67.43v-.27c.11-.03.17.08.13.2-.02.04-.07.09-.13.07Z"/>
              <g>
                <path class="st133" d="M8.46,83.21c.23.11.26.46.06.45-2.08-.07-3.94-1.43-4.4-3.42-.23-1,.23-2.04,1.01-2.64-.05.76-.33,1.47-.06,2.19l.52,1.37c.38,1.01,1.79,1.54,2.87,2.05Z"/>
                <path class="st101" d="M4.82,80.15c0-.13.18-.05.21,0,.02.05.03.14-.06.2-.04.03-.14-.08-.15-.21Z"/>
              </g>
              <path class="st140" d="M15.05,90.11c-.15-.05-.45-.02-.38-.29.11-.09.39.16.38.29Z"/>
              <path class="st140" d="M17.69,43.18c.08-.35.13-.2.2-.16.06.04.1.2,0,.25-.06.04-.12-.19-.21-.1Z"/>
              <g>
                <path class="st96" d="M21.89,92.23c.12-.14.56-.23.6-.04-.17.31-.55.18-.78.29-.83.44-1.67-.75-1.97-1.34-.16.21.1.41.05.5-.1.16-.24,0-.28-.07-.03-.05.03-.17.08-.3-.28-.27-.44-.61-.22-.92l.22.7c.3-.28-.07-.48.07-.74l.57,1.26c.1.23.35.2.31-.15.32.47,1.87.4,1.35.8Z"/>
                <path class="st197" d="M20.89,92.1c.22.02.42.06.6.32-.27.08-.54-.12-.6-.32Z"/>
                <path class="st25" d="M20.89,92.1c-.11.08-.43-.12-.36-.22.12-.17.37.1.36.22Z"/>
              </g>
              <path class="st144" d="M39.98,40.89c-.17-.37-.57-.64-.5-1.07.26.35.57.71.5,1.07Z"/>
              <path class="st181" d="M10.23,84.37c.02.14-.1.13-.2.14-.12.01-.2-.02-.2-.14h.4Z"/>
            </g>
          </g>
        </g>
        <path class="st138" d="M22.89,93.43s-.01.13-.07.14c-.1.01-.18,0-.2-.07-.02-.06,0-.14,0-.2h.2s.09.07.07.13Z"/>
      </g>
      <g>
        <g>
          <path class="st173" d="M113.3,103.69c-.99-2.35-2.49-6.65-5.75-5.57l-3.98,1.32-1.21.28c-.04-.1.02-.12.14-.15,2.11-.58,4.06-1.38,6.13-2.3,3.58-1.57,8.79-3.66,11.09-6.78,1.4-1.9,1.96-4.17,2.36-6.42-.09,3.55-1.14,6.83-2.75,10.02-1.7,3.4-3.65,6.5-5.82,9.57-.04.05-.18-.04-.21.01Z"/>
          <path class="st34" d="M94.6,89.68l.29.02c.27.02.56.01.87.08.68.15,1.42-.04,2.16.21.07.06.04.19.13.13-1.06,1.19-2.35,2.18-3.66,3.01.57.04.93.22,1.09.58.2.47-.26.8-.33,1.07-.19-2.37-2.04-.64-2.51-2.29-.4-1.42.62-2.92,1.96-2.81Z"/>
          <path class="st149" d="M92.65,86.07c.66.23,1.26.58,1.87,1.07,1.08.87,2.1,1.68,3.18,2.4.26.3-1.44.13-1.56.11l-1.37-.22c-.06,0-.11.02-.16.03-1.51.12-2.76-.98-2.78-2.54,0-.68.52-.65.82-.85Z"/>
          <path class="st56" d="M125.56,84.08c-.38-.02-2.79.04-2.7-.61,2.53-.15,1.13-.04,3.3-1.03-.12.67-.47,1.12-.61,1.64Z"/>
          <path class="st26" d="M97.7,89.54c.14.09.44.09.54.29,0,.13-.11.2-.18.28-.09.06-.07-.07-.13-.13-.73-.25-1.47-.05-2.16-.21-.31-.07-.59-.06-.87-.08l-.13-.27,1.37.22c.13.02,1.83.2,1.56-.11Z"/>
          <g>
            <path class="st185" d="M104.5,55.7h1.33c.18,0,.21-.14.35-.27.29.9-.82,4.11.18,4.67.07.24.18.59.53.53-.02.11.26.38.35.22s-.26-.22-.35-.22c-.12-.2-.3-.44-.53-.53-.38-1.1-.36-2.27.07-3.47.18.33.31.8.19,1.2-.32,1.04.38,2.17.94,3.2,1.23,2.25,6,4.28,6.26,4.53,1.67,1.57,2.16,3.66,2.04,5.9.68,2.55.79,2.77,2.63,4.62-.51-.28-.92-.68-1.32-1.17-.05-.07-.07-.07-.12-.01,0-.13-.73-1.16-.97-1.99-.03-.11.21-.33-.06-.4-.57-.15.79,2.67,1.03,2.39-.04.53,1.41.92,1.02,1.84l-1.03,2.45c.36-.49.72-1.01.87-1.61l.35-1.36c.63.48-.28,1.92-.17,2.17-.49.53-.9,1.15-1.4,1.83,1.41-.5,2.37-1.86,2.51-3.39.5.03.78.38,1.25.62l-1.02-.97c-.12-.12-.35.02-.38-.27.74.09,1.26.64,1.96.96-.9-1.01-1.59-1.23-2.11-2.41-.2.11.11.23-.05.45-1.74-1.72-1.88-2.01-2.1-4.18l.57,1.31c.12.27.46.38.57.67.32-.43.42.2.57.36.26-.13.44.01.7.1,1.21.39,2.49-.16,3.31-1.1.69-.78,1.28-1.52,2.14-2.1,1.86-1.26,4.2-.76,5.36,1.2.82,1.37.84,2.96.46,4.53-.49,2.03-1.65,3.74-3.15,5.19-1.38,1.34-3.9,3.16-5.47,1.44.05.49.61.88,1.02.86-.09.65,2.32.59,2.7.61-.19.7-.19,1.43-.06,2.18-.99.64-1.73,1.56-2.06,2.61-.57,1.82.33,3.45,1.93,4.26-.05,1.85,1.22,4.31,3.27,3.79.1,1.26,1.21,2.51,1.45,3.06.51,1.18,1.6,2.08,2.94,2.38.18.04.44-.15.56,0,.37.42.62,1.08,1.17,1.2.07.13.14.32.42.29.57.38,1.3.63,1.97.81-.03.07-.09.11-.04.21,1.47,2.73,3.26,5.17,5.16,7.62,1.54,1.99,3,3.93,4.24,6.21-9.91-5.73-17.72-5.04-27.47.21-1.72.92-3.28,1.87-5.13,2.66l1.61-2.68c1.19-1.99,1.28-4.21.74-6.53-.7-3.02-1.78-5.86-2.95-8.65.03-.06.17.04.21-.01,2.17-3.08,4.12-6.17,5.82-9.57,1.6-3.2,2.66-6.47,2.75-10.02-.4,2.24-.95,4.52-2.36,6.42-2.31,3.12-7.52,5.21-11.09,6.78-2.08.91-4.02,1.72-6.13,2.3-.11.03-.17.05-.14.15-1.36.31-2.77.75-4.25.66-1.97-.12-3.37-1.66-3.25-3.62.04-.69.14-1.36.29-1.98.06-.27.52-.6.33-1.07-.15-.36-.52-.54-1.09-.58,1.31-.83,2.59-1.82,3.66-3.01.07-.08.18-.15.18-.28-.1-.2-.39-.2-.54-.29-1.08-.72-2.1-1.53-3.18-2.4-.61-.49-1.21-.85-1.87-1.07.76-.51,1.24-2.05.41-2.58s-1.76-.67-2.37-1.41c-.9-1.1-.82-2.43.34-3.34,1.59-1.25,2.9-2.73,3.89-4.49,1.57-2.8-.29-4.92-.54-7.76-.53-5.95,1.93-11.33,6.26-15.18h.2c.1,0,.07-.19.08-.28.32.42,1.06.65,1.28,1.22.05,2.13.72,3.51,2.6,3.81,0-.24-.11-.24-.22-.22-.05.01-.08-.08-.07-.13Z"/>
            <g>
              <path class="st201" d="M106.63,57.83c.13.18.2.34.05.41-.09-.19-.02-.3-.05-.41Z"/>
              <path class="st68" d="M106.64,67.71c-2.59-1.02-4.52-2.17-7.35-1.09l-2.72,1.04c-.55-.67-.83-1.48-.83-2.43,1.47-.6,3-.99,4.61-1.12,1.23-.11,2.35.28,3.3,1,1.06.79,2.06,1.58,2.98,2.6Z"/>
              <g>
                <path class="st31" d="M127.57,78.9c.26-.47.71-.91.96-1.47.65-1.44.58-3.29-.13-4.69.06-.12.25-.09.34-.23-.29-.82-.97-1.08-1.65-1.2-.81-.14-1.41.31-1.95.88-.31.33-.67.52-.63.97.15,1.6,3.41.91,2.82,3.92-.14.74-.74,1.49-1.62,1.64-.8.13-1.42.36-2.03.95-.32.31-.91.43-1.17.02-.71-1.12,1.88-1.44.76-3.21-.1-.16-.21-.43-.2-.58,0-.13.16-.45.36-.41.52.11.98.42,1.43.63,1.56.73,1.05,2.78,1.59,2.03.1-.14.56-2.08-1.41-2.63-.65-.18-1.09-.62-1.1-1.32-.02-1.19.58-2.32,1.63-2.91.9-.5,1.84-.42,2.7.12.68.43,1.07,1.19,1.2,2.13.25,1.81-.29,3.58-1.46,4.98-.07.09-.03.22-.16.3-.08.05-.15.08-.27.06Z"/>
                <path class="st27" d="M128.4,72.74c-.25-.49-.81-.91-1.34-1.03-.42-.1-.75.06-.91.33-.25.41.38,1.01.39,1.18.04.47-1.8.05-2.05-.05-.04-.45.32-.64.63-.97.54-.57,1.15-1.02,1.95-.88.68.12,1.36.37,1.65,1.2-.09.14-.28.11-.34.23Z"/>
              </g>
              <path class="st47" d="M94.76,83.13c-1.07-.44-2.4-.31-2.34-.83.08-.69,2.47-.05,2.34.83Z"/>
              <path class="st151" d="M94.76,83.13c.43.18.9.12,1.29-.07.85-.43.81-1.62.61-2.6.51.6.41,1.35.13,2.05-.34.86-1.29,1.21-2.03.62Z"/>
              <path class="st100" d="M117.06,74.89c-.24.29-1.6-2.53-1.03-2.39.27.07.03.29.06.4.24.83.98,1.86.97,1.99Z"/>
              <path class="st63" d="M127.57,78.9c-.32.44-.86.8-1.49.92.46-.4,1-.68,1.49-.92Z"/>
              <path class="st30" d="M95.44,81.39c-.32.26-.67.08-.98-.11.31-.16.67-.17.98.11Z"/>
              <path class="st72" d="M91.98,80.03c-.28.1-.67.19-.97-.14.28-.1.67-.19.97.14Z"/>
              <path class="st160" d="M106.9,60.63c-.35.06-.47-.3-.53-.53.23.09.41.34.53.53Z"/>
              <path class="st61" d="M135.18,103.84c-.28.02-.35-.17-.42-.29.16.03.38.08.42.29Z"/>
              <path class="st129" d="M106.9,60.63c.09,0,.45.06.35.22s-.37-.11-.35-.22Z"/>
              <g>
                <path class="st42" d="M103.17,70.76c-.86-.15-1.19-.99-3.26-1.28-.26-.04-.46.18-.79.16.64-1.09,3.51.65,4.05,1.13Z"/>
                <path class="st42" d="M103.17,70.76c.32.05.6.15.86.47-.35-.01-.73-.2-.86-.47Z"/>
                <g>
                  <path class="st90" d="M97.68,70.36c.06.14.17.33.42.25-.04-.14-.15-.17-.42-.25-.25-.41-.51-.63-.35-1.08.22.15.28.37.47.54-.06-.24-.2-.45,0-.64.21.32.29.66.75.85-.02-.32-.19-.53-.13-.87.09.25.18.49.31.64.18.23.44.15.7.18,2.22.3,3.54,1.93,5.46,1.74l-1.17.56c-1.34.64-2.48,1.75-4.02,1.91-.39.04-.7.08-.9.46.06-.43.35-.6.72-.79-.49-.89-.56-1.75-.43-2.65-.67-.05-1.41-.26-1.41-.84Z"/>
                  <path class="st155" d="M103.57,72.22c-1.06.74-2.09,1.29-3.34,1.62.44-.87.56-1.68.31-2.67l3.03,1.05Z"/>
                  <path class="st17" d="M100.12,71.58c.08-.05.14.05.18.08.12.1.03.14-.04.23-.1.13-.13.03-.22-.04-.11-.09-.08-.18.08-.28Z"/>
                  <path class="st3" d="M97.68,70.36c.27.08.38.11.42.25-.25.08-.37-.11-.42-.25Z"/>
                </g>
              </g>
            </g>
          </g>
        </g>
        <g>
          <path class="st202" d="M42.18,104.11c-.62,1.76-1.11,3.58-1.66,5.46-.91,3.12-1.53,6.62.19,9.51l1.69,2.83c-2.17-.66-4.01-1.7-5.95-2.7-2.39-1.23-4.69-2.38-7.29-3.19-6.48-2.03-12.32-.64-18.21,2.66,2.33-4.55,5.36-7.58,7.9-12.04,2.1-3.69,3.58-7.62,4.07-11.74.11.01.14-.11.11-.2-.03-.07-.07-.13-.14-.08-.06-.22,0-.43.01-.65.11-.04.08.12.25.15,0-.28.06-.47,0-.65.26-.02.06-.42.32-.53,2.88-1.18,3.53-1.43,4.61-4.59-.39-.15-.44-.14-.09-.33.12-.02.09.21.18.24.34.08.24-.35.32-.44.8-.91.59-2.07.02-3.06,2.63-.71,3.96,2.51,4.91,4.69,1.87,4.29,4.11,8.25,6.91,12,.64.86,1.11,1.63,1.88,2.34-.09.19-.18.31-.02.32Z"/>
          <path class="st112" d="M30.78,82.49c1.14.6,2.37,1.04,3.56.27.15-.1.09-.36.26-.4.09.36-.32.49-.33.79-.04,1.5.39,2.87.86,4.27.74,2.2,2.03,3.96,3.9,5.32,1.22.89,2.36,1.64,3.73,2.27l5.88,2.71,3.33,1.3c.15.01.31,0,.26.17l-4.26-1.32c-1.44-.45-2.83.09-3.63,1.43-.9,1.51-1.59,3.16-2.16,4.79-.16,0-.06-.13.02-.32-.77-.72-1.24-1.49-1.88-2.34-2.81-3.75-5.04-7.71-6.91-12-.95-2.19-2.28-5.4-4.91-4.69-.12-.2-.28-.41-.45-.66.44-.82.81-1.56.99-2.53.41.12.73.42,1.04.69.25.23.52.15.71.24Z"/>
          <g>
            <path class="st77" d="M61.86,89.46c-.14,0-.29.08-.31.24l-3.32.39c-.08-.01-.17-.06-.21-.12-.05-.07,0-.2.11-.26,1.93-.97,3.52-2.88,5.47-3.68-.42-.16-.38-.38-.43-.58.61.72,1.57.5,1.36,1.83-.22,1.41-1.34,2.25-2.67,2.17Z"/>
            <g>
              <path class="st165" d="M61.54,89.7c.09-.01.21-.02.31,0,1.32.24,2.23,1.49,1.8,2.81-.22.68-.74.86-1.44.85-.64,0-1.19.79-1.11,1.39-.33-.2-.49-.64-.47-1,.03-.43.44-.68.93-.76-1.2-.85-2.51-1.69-3.33-2.91l3.32-.39Z"/>
              <path class="st110" d="M62.1,91.12c.04.33-.15.41-.14.08l-.24-.24c-.07-.07-.08-.44.1-.42.22.02.25.32.28.58Z"/>
            </g>
            <g>
              <path class="st57" d="M55.82,51.18l.65-.29c-.07.17-.18.3-.33.57,3.61,2.88,5.77,6.98,6.19,11.56.58,6.25-2.64,7.68-.97,11.05,1.94,3.91,4.74,4.57,4.9,6.24.2,2.04-2.35,2.79-2.98,3.17-.68.42-.27,1.39-.13,1.98.05.2,0,.42.43.58-1.95.79-3.54,2.71-5.47,3.68-.1.05-.16.19-.11.26.04.06.13.11.21.12.82,1.22,2.13,2.06,3.33,2.91-.49.08-.9.33-.93.76-.03.36.14.8.47,1,.1.74.33,1.46.31,2.27-.05,1.51-.92,2.72-2.36,3.15-1.94.58-5.08-.3-6.82-.98.05-.18-.11-.16-.26-.17l-3.33-1.3-5.88-2.71c-1.37-.63-2.51-1.38-3.73-2.27-1.87-1.36-3.16-3.12-3.9-5.32-.47-1.4-.9-2.78-.86-4.27,0-.31.42-.43.33-.79-.17.04-.12.3-.26.4-1.19.77-2.42.33-3.56-.27-2.9-1.92-5.57-5.41-5.02-9.29.21-1.49,1.15-2.86,2.6-3.36,1.31-.45,2.65-.03,3.74.8,1.39,1.06,1.99,2.53,2.5,1.89.23,1,1.05,1.45,1.9,1.68.26.46.46,1.32,1.18,1.33.65,0,.97-.57,1.27-.96.58-.74.62-1.44.66-2.38,0,0,.46-1.17-.04-1.65-.05-.04.25-.1.25-.17,0-.41-.29-.69-.51-1.01,1.48-1.14,1.6-.4,2.11-.67.83-.44.75-1.6.77-1.74.29-1.77-1.03-2.04.04-2.24,1.37-.26,2.64-1.11,3.06-2.45.21-.67,1.32-.95,1.45-1.63.07-.4.05-1.04-.37-1.21.25,1.23.3,1.47-.69,2.16.19-2.11-.03-1.91-.99-3.2,1.02.43,1.11,1.45,1.34,2.38l-.15-1.8s-.35-.27-.24-.4c1.24.04,2.84-1.44,3.06-2.27.08-.29,1.47.32,1.77-1.41.09-.5-.1-.99-.39-1.34,0-.06.14-.39.26-.4.86-.04,1.3-.6,1.95-1.01,2-1.26,1.17-1.71,3.54-.97Z"/>
              <g>
                <path class="st159" d="M59.91,67.62c-2.88-.92-4.86-1.99-7.85-.9l-2.63.96c4.11-3.85,5.14-4.38,10.8-2.65.08.08.12.19.15.23.03.05.16.04.12-.02-.09-.13.08-.25.12-.18.33.88-.12,1.73-.71,2.57Z"/>
                <path class="st204" d="M33.72,79.82c-.75.56-1.27-.91-2.67-.98-.53-.03-1.06-.2-1.49-.64-.57-.59-.71-1.45-.42-2.28.63-1.82,2.15-1.01,3.12-2.92.51.82.38,1.76-.1,2.48.19.23.39.01.62-.07s.4.15.47.27c.35.64-1.23,1.6.35,2.81.37.29.62.98.14,1.33Z"/>
                <path class="st54" d="M63.6,82.64l-2.2.4c.13-.73,1.96-1.5,2.46-.81.06.08-.05.37-.26.41Z"/>
                <path class="st150" d="M30.37,79.83c-1.28.02-3.66-2.77-3.13-4.01.21,1.82,1.49,3.15,3.13,4.01Z"/>
                <path class="st214" d="M61.28,83.2c-.14.4-.58.22-.91.13-.66-.17-1.02-.64-1.16-1.29s.07-1.46.63-1.97c-.28.68-.5,1.17-.43,1.91.08.87.85,1.35,1.86,1.21Z"/>
                <path class="st178" d="M64.77,79.76c-.24.12-.51.11-.82.01.24-.12.51-.11.82-.01Z"/>
                <path class="st15" d="M33.31,81.43c-.09.02-.15-.04-.16-.13.04.06.22.03.16.13Z"/>
                <g>
                  <path class="st78" d="M52.62,72.36l-1.45-.62c.84.23,2.19-.53,3.03-.91.91-.42,1.81-.72,2.82-.86-.25-1.19-3.1.21-3.63.56-.37.24-.71.44-1.09.53.9-.76,4.34-2.79,5.03-1.14.29-.28.39-.62.58-.9l.11.93.59-.87c.02.51.06.54.29.23.11.94-.64,1.77-1.67,1.94.2.94-.06,1.78-.38,2.67.38.12.58.32.51.52-.14-.05-.31-.15-.39-.12-.13.06.02.25-.11.45-.2-.05,0-.4-.09-.53-1.53-.3-2.78-1.3-4.14-1.88Z"/>
                  <path class="st219" d="M55.98,73.75c-1.17-.21-2.24-.72-3.27-1.55l2.99-1.01c-.15.86-.12,1.56.28,2.56Z"/>
                  <path class="st109" d="M56.37,71.53c.15-.05.2.06.22.11.04.08-.02.21-.1.23-.1.02-.16.01-.2-.03-.06-.06-.08-.25.08-.31Z"/>
                </g>
              </g>
            </g>
          </g>
        </g>
      </g>
    </g>
  </g>
  <g>
    <rect class="st207" x="66.28" y="62.48" width="23.79" height="24"/>
    <path d="M80.49,82.48h-.21c-.86-.09-1.57-.73-1.74-1.58l-2.66-12.42-2.74,6.4c-.16.37-.52.6-.91.6h-2.97c-.55,0-.99-.45-.99-1s.44-1,.99-1h2.32l2.49-5.79c.44-1.01,1.6-1.48,2.61-1.04.59.26,1.01.79,1.15,1.42l2.66,12.41,2.74-6.38c.15-.37.51-.62.91-.62h2.97c.55,0,.99.45.99,1s-.44,1-.99,1h-2.32l-2.49,5.79c-.31.73-1.02,1.2-1.8,1.21Z"/>
  </g>
  <text class="st58" transform="translate(43.08 13.34)"><tspan x="0" y="0">The Struggles </tspan><tspan x="0" y="14.4">of Translation</tspan></text>
</svg>